# xmcd CD database file
#
# Track frame offsets:
#	150
#	21691
#	39521
#	56415
#	73535
#	86468
#	104831
#	120764
#	136915
#	151103
#	171052
#	189974
#	207440
#	225858
#	242926
#
# Disc length: 3464 seconds
#
# Revision: 13
# Processed by: cddbd v1.5PL3 Copyright (c) Steve Scherf et al.
# Submitted via: CdAid (MTCDDB.DLL V2003.12.21)
#
DISCID=bf0d860f
DTITLE=Bruno e Marrone - Inevitável
DYEAR=2003
DGENRE=Country
TTITLE0=Será
TTITLE1=Vai dar Namoro
TTITLE2=Deixa
TTITLE3=É você que eu amo
TTITLE4=Prá lá que eu vou
TTITLE5=Sonhos Perdidos
TTITLE6=Transito Parado
TTITLE7=Doce Desejo
TTITLE8=Apaziguar
TTITLE9=Se não tivesse ido
TTITLE10=Você Não Me Ensinou A Ti Esquecer
TTITLE11=Inevitável
TTITLE12=Coração de Pedra
TTITLE13=Foi Engano
TTITLE14=Ligação Urbana
EXTD=YEAR: 2003 ID3G:   2
EXTT0=
EXTT1=
EXTT2=
EXTT3=
EXTT4=
EXTT5=
EXTT6=
EXTT7=
EXTT8=
EXTT9=
EXTT10=
EXTT11=
EXTT12=
EXTT13=
EXTT14=
PLAYORDER=
